<mxfile host="app.diagrams.net" modified="2023-06-15T18:59:19.857Z" agent="Mozilla/5.0 (Macintosh; Intel Mac OS X 10_15_7) AppleWebKit/537.36 (KHTML, like Gecko) Chrome/114.0.0.0 Safari/537.36" etag="Rv8VQsXiumo4CksROO5G" version="21.4.0" type="device">
  <diagram name="PÃ¡gina-1" id="aI6t8disZSI6Cs0K8UNN">
    <mxGraphModel dx="2074" dy="1156" grid="1" gridSize="10" guides="1" tooltips="1" connect="1" arrows="1" fold="1" page="1" pageScale="1" pageWidth="827" pageHeight="1169" math="0" shadow="0">
      <root>
        <mxCell id="0" />
        <mxCell id="1" parent="0" />
        <mxCell id="912aiTQ17VM6ZI3qrgej-51" style="edgeStyle=orthogonalEdgeStyle;rounded=0;orthogonalLoop=1;jettySize=auto;html=1;exitX=0.5;exitY=0.5;exitDx=0;exitDy=0;exitPerimeter=0;entryX=0;entryY=0.5;entryDx=0;entryDy=0;" edge="1" parent="1" source="912aiTQ17VM6ZI3qrgej-1" target="912aiTQ17VM6ZI3qrgej-2">
          <mxGeometry relative="1" as="geometry" />
        </mxCell>
        <mxCell id="912aiTQ17VM6ZI3qrgej-1" value="Actor" style="shape=umlActor;verticalLabelPosition=bottom;verticalAlign=top;html=1;outlineConnect=0;" vertex="1" parent="1">
          <mxGeometry x="50" y="430" width="30" height="60" as="geometry" />
        </mxCell>
        <mxCell id="912aiTQ17VM6ZI3qrgej-42" style="edgeStyle=orthogonalEdgeStyle;rounded=0;orthogonalLoop=1;jettySize=auto;html=1;exitX=0.983;exitY=0.275;exitDx=0;exitDy=0;entryX=0;entryY=0.75;entryDx=0;entryDy=0;exitPerimeter=0;" edge="1" parent="1" source="912aiTQ17VM6ZI3qrgej-2" target="912aiTQ17VM6ZI3qrgej-4">
          <mxGeometry relative="1" as="geometry" />
        </mxCell>
        <mxCell id="912aiTQ17VM6ZI3qrgej-43" value="put recommendation" style="edgeLabel;html=1;align=center;verticalAlign=middle;resizable=0;points=[];" vertex="1" connectable="0" parent="912aiTQ17VM6ZI3qrgej-42">
          <mxGeometry x="0.0872" relative="1" as="geometry">
            <mxPoint as="offset" />
          </mxGeometry>
        </mxCell>
        <mxCell id="912aiTQ17VM6ZI3qrgej-45" style="edgeStyle=orthogonalEdgeStyle;rounded=0;orthogonalLoop=1;jettySize=auto;html=1;exitX=1;exitY=0.75;exitDx=0;exitDy=0;entryX=0;entryY=0.5;entryDx=0;entryDy=0;" edge="1" parent="1" source="912aiTQ17VM6ZI3qrgej-2" target="912aiTQ17VM6ZI3qrgej-16">
          <mxGeometry relative="1" as="geometry">
            <mxPoint x="370" y="590" as="targetPoint" />
          </mxGeometry>
        </mxCell>
        <mxCell id="912aiTQ17VM6ZI3qrgej-52" value="get content" style="edgeLabel;html=1;align=center;verticalAlign=middle;resizable=0;points=[];" vertex="1" connectable="0" parent="912aiTQ17VM6ZI3qrgej-45">
          <mxGeometry x="-0.2" y="3" relative="1" as="geometry">
            <mxPoint x="42" y="3" as="offset" />
          </mxGeometry>
        </mxCell>
        <mxCell id="912aiTQ17VM6ZI3qrgej-2" value="API&lt;br&gt;Gateway" style="rounded=0;whiteSpace=wrap;html=1;" vertex="1" parent="1">
          <mxGeometry x="140" y="160" width="60" height="600" as="geometry" />
        </mxCell>
        <mxCell id="912aiTQ17VM6ZI3qrgej-10" style="edgeStyle=orthogonalEdgeStyle;rounded=0;orthogonalLoop=1;jettySize=auto;html=1;exitX=1;exitY=0.75;exitDx=0;exitDy=0;dashed=1;entryX=0;entryY=0.75;entryDx=0;entryDy=0;" edge="1" parent="1" source="912aiTQ17VM6ZI3qrgej-6" target="912aiTQ17VM6ZI3qrgej-9">
          <mxGeometry relative="1" as="geometry">
            <Array as="points">
              <mxPoint x="736" y="335" />
            </Array>
          </mxGeometry>
        </mxCell>
        <mxCell id="912aiTQ17VM6ZI3qrgej-15" value="Content created" style="edgeLabel;html=1;align=center;verticalAlign=middle;resizable=0;points=[];" vertex="1" connectable="0" parent="912aiTQ17VM6ZI3qrgej-10">
          <mxGeometry x="-0.3455" y="-2" relative="1" as="geometry">
            <mxPoint x="45" y="-2" as="offset" />
          </mxGeometry>
        </mxCell>
        <mxCell id="912aiTQ17VM6ZI3qrgej-38" value="Recommendation created" style="edgeStyle=orthogonalEdgeStyle;rounded=0;orthogonalLoop=1;jettySize=auto;html=1;exitX=1;exitY=0.25;exitDx=0;exitDy=0;entryX=0;entryY=0.25;entryDx=0;entryDy=0;dashed=1;" edge="1" parent="1" target="912aiTQ17VM6ZI3qrgej-9">
          <mxGeometry x="-0.3211" relative="1" as="geometry">
            <mxPoint x="500" y="305" as="sourcePoint" />
            <mxPoint x="771.5454545454545" y="378.181818181818" as="targetPoint" />
            <Array as="points">
              <mxPoint x="763" y="305" />
            </Array>
            <mxPoint as="offset" />
          </mxGeometry>
        </mxCell>
        <mxCell id="912aiTQ17VM6ZI3qrgej-22" style="edgeStyle=orthogonalEdgeStyle;rounded=0;orthogonalLoop=1;jettySize=auto;html=1;exitX=1;exitY=0.25;exitDx=0;exitDy=0;dashed=1;entryX=1;entryY=0.75;entryDx=0;entryDy=0;" edge="1" parent="1" source="912aiTQ17VM6ZI3qrgej-9" target="912aiTQ17VM6ZI3qrgej-18">
          <mxGeometry relative="1" as="geometry">
            <mxPoint x="540" y="590" as="targetPoint" />
            <Array as="points">
              <mxPoint x="764" y="495" />
              <mxPoint x="760" y="495" />
              <mxPoint x="760" y="645" />
            </Array>
          </mxGeometry>
        </mxCell>
        <mxCell id="912aiTQ17VM6ZI3qrgej-23" value="Content created" style="edgeLabel;html=1;align=center;verticalAlign=middle;resizable=0;points=[];" vertex="1" connectable="0" parent="912aiTQ17VM6ZI3qrgej-22">
          <mxGeometry x="-0.0588" relative="1" as="geometry">
            <mxPoint x="-120" y="3" as="offset" />
          </mxGeometry>
        </mxCell>
        <mxCell id="912aiTQ17VM6ZI3qrgej-39" style="edgeStyle=orthogonalEdgeStyle;rounded=0;orthogonalLoop=1;jettySize=auto;html=1;exitX=1;exitY=0.75;exitDx=0;exitDy=0;entryX=1;entryY=0.25;entryDx=0;entryDy=0;dashed=1;" edge="1" parent="1" source="912aiTQ17VM6ZI3qrgej-9" target="912aiTQ17VM6ZI3qrgej-18">
          <mxGeometry relative="1" as="geometry">
            <Array as="points">
              <mxPoint x="737" y="615" />
            </Array>
          </mxGeometry>
        </mxCell>
        <mxCell id="912aiTQ17VM6ZI3qrgej-40" value="Recommendation created" style="edgeLabel;html=1;align=center;verticalAlign=middle;resizable=0;points=[];" vertex="1" connectable="0" parent="912aiTQ17VM6ZI3qrgej-39">
          <mxGeometry x="-0.0493" y="2" relative="1" as="geometry">
            <mxPoint x="-38" y="-4" as="offset" />
          </mxGeometry>
        </mxCell>
        <mxCell id="912aiTQ17VM6ZI3qrgej-9" value="Queue" style="shape=parallelogram;perimeter=parallelogramPerimeter;whiteSpace=wrap;html=1;fixedSize=1;rotation=90;" vertex="1" parent="1">
          <mxGeometry x="650" y="450" width="200" height="60" as="geometry" />
        </mxCell>
        <mxCell id="912aiTQ17VM6ZI3qrgej-14" style="edgeStyle=orthogonalEdgeStyle;rounded=0;orthogonalLoop=1;jettySize=auto;html=1;exitX=0.75;exitY=0;exitDx=0;exitDy=0;entryX=0.5;entryY=1;entryDx=0;entryDy=0;entryPerimeter=0;" edge="1" parent="1" source="912aiTQ17VM6ZI3qrgej-4" target="912aiTQ17VM6ZI3qrgej-13">
          <mxGeometry relative="1" as="geometry" />
        </mxCell>
        <mxCell id="912aiTQ17VM6ZI3qrgej-13" value="content" style="shape=cylinder3;whiteSpace=wrap;html=1;boundedLbl=1;backgroundOutline=1;size=15;" vertex="1" parent="1">
          <mxGeometry x="437" y="150" width="60" height="80" as="geometry" />
        </mxCell>
        <mxCell id="912aiTQ17VM6ZI3qrgej-21" style="edgeStyle=orthogonalEdgeStyle;rounded=0;orthogonalLoop=1;jettySize=auto;html=1;exitX=0.5;exitY=1;exitDx=0;exitDy=0;entryX=0.5;entryY=0;entryDx=0;entryDy=0;entryPerimeter=0;" edge="1" parent="1" source="912aiTQ17VM6ZI3qrgej-18" target="912aiTQ17VM6ZI3qrgej-20">
          <mxGeometry relative="1" as="geometry" />
        </mxCell>
        <mxCell id="912aiTQ17VM6ZI3qrgej-20" value="Content&lt;br&gt;View" style="shape=cylinder3;whiteSpace=wrap;html=1;boundedLbl=1;backgroundOutline=1;size=15;" vertex="1" parent="1">
          <mxGeometry x="420" y="720" width="60" height="80" as="geometry" />
        </mxCell>
        <mxCell id="912aiTQ17VM6ZI3qrgej-41" value="" style="group" vertex="1" connectable="0" parent="1">
          <mxGeometry x="377" y="280" width="126" height="70" as="geometry" />
        </mxCell>
        <mxCell id="912aiTQ17VM6ZI3qrgej-4" value="" style="rounded=0;whiteSpace=wrap;html=1;" vertex="1" parent="912aiTQ17VM6ZI3qrgej-41">
          <mxGeometry width="120" height="60" as="geometry" />
        </mxCell>
        <mxCell id="912aiTQ17VM6ZI3qrgej-6" value="Content" style="rounded=0;whiteSpace=wrap;html=1;" vertex="1" parent="912aiTQ17VM6ZI3qrgej-41">
          <mxGeometry x="6" y="10" width="120" height="60" as="geometry" />
        </mxCell>
        <mxCell id="912aiTQ17VM6ZI3qrgej-7" style="edgeStyle=orthogonalEdgeStyle;rounded=0;orthogonalLoop=1;jettySize=auto;html=1;entryX=0;entryY=0.25;entryDx=0;entryDy=0;exitX=1;exitY=0.222;exitDx=0;exitDy=0;exitPerimeter=0;" edge="1" parent="1" source="912aiTQ17VM6ZI3qrgej-2" target="912aiTQ17VM6ZI3qrgej-4">
          <mxGeometry relative="1" as="geometry">
            <mxPoint x="270" y="260" as="sourcePoint" />
            <Array as="points">
              <mxPoint x="200" y="295" />
            </Array>
          </mxGeometry>
        </mxCell>
        <mxCell id="912aiTQ17VM6ZI3qrgej-25" value="put content" style="edgeLabel;html=1;align=center;verticalAlign=middle;resizable=0;points=[];" vertex="1" connectable="0" parent="912aiTQ17VM6ZI3qrgej-7">
          <mxGeometry x="-0.2167" y="-2" relative="1" as="geometry">
            <mxPoint x="52" y="-4" as="offset" />
          </mxGeometry>
        </mxCell>
        <mxCell id="912aiTQ17VM6ZI3qrgej-44" value="" style="group" vertex="1" connectable="0" parent="1">
          <mxGeometry x="370" y="580" width="140" height="80" as="geometry" />
        </mxCell>
        <mxCell id="912aiTQ17VM6ZI3qrgej-16" value="Catalogue" style="rounded=0;whiteSpace=wrap;html=1;" vertex="1" parent="912aiTQ17VM6ZI3qrgej-44">
          <mxGeometry width="120" height="60" as="geometry" />
        </mxCell>
        <mxCell id="912aiTQ17VM6ZI3qrgej-17" value="Catalogue" style="rounded=0;whiteSpace=wrap;html=1;" vertex="1" parent="912aiTQ17VM6ZI3qrgej-44">
          <mxGeometry x="10" y="10" width="120" height="60" as="geometry" />
        </mxCell>
        <mxCell id="912aiTQ17VM6ZI3qrgej-18" value="Catalog" style="rounded=0;whiteSpace=wrap;html=1;" vertex="1" parent="912aiTQ17VM6ZI3qrgej-44">
          <mxGeometry x="20" y="20" width="120" height="60" as="geometry" />
        </mxCell>
      </root>
    </mxGraphModel>
  </diagram>
</mxfile>
